ffmpeg started on 2025-06-07 at 16:10:44
Report written to "D:\Convert\FFMetrics\reports\psnr_report-6.txt"
Log level: 32
Command line:
ffmpeg -hide_banner -nostdin -i "G:\\\xc0\xed\xe8\xec\xe5\\\xce\xed\xe3\xee\xe8\xed\xe3\xe8\\!_36_\xce\xf1\xe5\xed\xfc_2024\\DreamCast\\\xd6\xe5\xeb\xe8\xf2\xe5\xeb\xfc, \xea\xee\xf2\xee\xf0\xee\xe3\xee \xe8\xf1\xea\xeb\xfe\xf7\xe8\xeb\xe8 \xe8\xe7 \xe3\xf0\xf3\xef\xef\xfb, \xee\xea\xe0\xe7\xe0\xeb\xf1\xff \xf1\xe8\xeb\xfc\xed\xe5\xe9\xf8\xe8\xec!\\[DC] sonochiyushi - 08_Telegram_HEVC.mkv" -i "G:\\\xc0\xed\xe8\xec\xe5\\\xce\xed\xe3\xee\xe8\xed\xe3\xe8\\!_36_\xce\xf1\xe5\xed\xfc_2024\\DreamCast\\\xd6\xe5\xeb\xe8\xf2\xe5\xeb\xfc, \xea\xee\xf2\xee\xf0\xee\xe3\xee \xe8\xf1\xea\xeb\xfe\xf7\xe8\xeb\xe8 \xe8\xe7 \xe3\xf0\xf3\xef\xef\xfb, \xee\xea\xe0\xe7\xe0\xeb\xf1\xff \xf1\xe8\xeb\xfc\xed\xe5\xe9\xf8\xe8\xec!\\[DC] sonochiyushi - 08_Telegram.mp4" -lavfi "[0:v]settb=AVTB,setpts=PTS-STARTPTS,format=pix_fmts=yuv420p10,fps=24000/1001,scale=1920:1080:flags=bicubic[main];[1:v]settb=AVTB,setpts=PTS-STARTPTS,format=pix_fmts=yuv420p,fps=24000/1001,scale=1920:1080:flags=bicubic[ref];[main][ref]psnr=eof_action=endall:stats_file='D\\:/Convert/FFMetrics/logs/psnr_logfile-6.txt'" -f null -
Input #0, matroska,webm, from 'G:\Аниме\Онгоинги\!_36_Осень_2024\DreamCast\Целитель, которого исключили из группы, оказался сильнейшим!\[DC] sonochiyushi - 08_Telegram_HEVC.mkv':
  Metadata:
    COMPATIBLE_BRANDS: isomiso2avc1mp41
    MAJOR_BRAND     : isom
    MINOR_VERSION   : 512
    ENCODER         : Lavf61.7.100
  Duration: 00:23:30.69, start: -0.021000, bitrate: 784 kb/s
  Stream #0:0: Video: hevc (Main 10), yuv420p10le(tv, bt709, progressive), 1920x1080 [SAR 1:1 DAR 16:9], 23.98 fps, 23.98 tbr, 1k tbn (default)
      Metadata:
        HANDLER_NAME    : VideoHandler
        VENDOR_ID       : [0][0][0][0]
        ENCODER         : Lavc61.19.100 libx265
        BPS             : 587067
        DURATION        : 00:23:30.575708333
        NUMBER_OF_FRAMES: 33820
        NUMBER_OF_BYTES : 103512929
        _STATISTICS_WRITING_APP: mkvpropedit v66.0.0 ('Josie') 64-bit
        _STATISTICS_WRITING_DATE_UTC: 2025-06-05 08:38:43
        _STATISTICS_TAGS: BPS DURATION NUMBER_OF_FRAMES NUMBER_OF_BYTES
  Stream #0:1: Audio: aac (LC), 48000 Hz, stereo, fltp (default)
      Metadata:
        HANDLER_NAME    : SoundHandler
        VENDOR_ID       : [0][0][0][0]
        ENCODER         : Lavc61.19.100 aac
        BPS             : 193170
        DURATION        : 00:23:30.688000000
        NUMBER_OF_FRAMES: 66127
        NUMBER_OF_BYTES : 34062940
        _STATISTICS_WRITING_APP: mkvpropedit v66.0.0 ('Josie') 64-bit
        _STATISTICS_WRITING_DATE_UTC: 2025-06-05 08:38:43
        _STATISTICS_TAGS: BPS DURATION NUMBER_OF_FRAMES NUMBER_OF_BYTES
Input #1, mov,mp4,m4a,3gp,3g2,mj2, from 'G:\Аниме\Онгоинги\!_36_Осень_2024\DreamCast\Целитель, которого исключили из группы, оказался сильнейшим!\[DC] sonochiyushi - 08_Telegram.mp4':
  Metadata:
    major_brand     : isom
    minor_version   : 512
    compatible_brands: isomiso2avc1mp41
    encoder         : Lavf61.1.100
  Duration: 00:23:30.64, start: 0.000000, bitrate: 3433 kb/s
  Stream #1:0[0x1](und): Video: h264 (High) (avc1 / 0x31637661), yuv420p(tv, bt709, progressive), 1920x1080 [SAR 1:1 DAR 16:9], 3285 kb/s, 23.98 fps, 23.98 tbr, 24k tbn (default)
      Metadata:
        handler_name    : VideoHandler
        vendor_id       : [0][0][0][0]
        encoder         : Lavc61.3.100 h264_qsv
  Stream #1:1[0x2](und): Audio: aac (HE-AACv2) (mp4a / 0x6134706D), 48000 Hz, stereo, fltp, 144 kb/s (default)
      Metadata:
        handler_name    : SoundHandler
        vendor_id       : [0][0][0][0]
Stream mapping:
  Stream #0:0 (hevc) -> settb:default
  Stream #1:0 (h264) -> settb:default
  psnr:default -> Stream #0:0 (wrapped_avframe)
  Stream #0:1 -> #0:1 (aac (native) -> pcm_s16le (native))
Output #0, null, to 'pipe:':
  Metadata:
    COMPATIBLE_BRANDS: isomiso2avc1mp41
    MAJOR_BRAND     : isom
    MINOR_VERSION   : 512
    encoder         : Lavf61.7.100
  Stream #0:0: Video: wrapped_avframe, yuv420p10le(tv, bt709, progressive), 1920x1080 [SAR 1:1 DAR 16:9], q=2-31, 200 kb/s, 23.98 fps, 23.98 tbn
      Metadata:
        encoder         : Lavc61.19.100 wrapped_avframe
  Stream #0:1: Audio: pcm_s16le, 48000 Hz, stereo, s16, 1536 kb/s (default)
      Metadata:
        HANDLER_NAME    : SoundHandler
        VENDOR_ID       : [0][0][0][0]
        _STATISTICS_TAGS: BPS DURATION NUMBER_OF_FRAMES NUMBER_OF_BYTES
        BPS             : 193170
        DURATION        : 00:23:30.688000000
        NUMBER_OF_FRAMES: 66127
        NUMBER_OF_BYTES : 34062940
        _STATISTICS_WRITING_APP: mkvpropedit v66.0.0 ('Josie') 64-bit
        _STATISTICS_WRITING_DATE_UTC: 2025-06-05 08:38:43
        encoder         : Lavc61.19.100 pcm_s16le
frame=  179 fps=0.0 q=-0.0 size=N/A time=00:00:07.46 bitrate=N/A speed=14.3x    frame=  421 fps=409 q=-0.0 size=N/A time=00:00:17.55 bitrate=N/A speed=  17x    frame=  705 fps=453 q=-0.0 size=N/A time=00:00:29.40 bitrate=N/A speed=18.9x    frame=  977 fps=472 q=-0.0 size=N/A time=00:00:40.74 bitrate=N/A speed=19.7x    frame= 1262 fps=489 q=-0.0 size=N/A time=00:00:52.63 bitrate=N/A speed=20.4x    frame= 1502 fps=484 q=-0.0 size=N/A time=00:01:02.64 bitrate=N/A speed=20.2x    frame= 1757 fps=486 q=-0.0 size=N/A time=00:01:13.28 bitrate=N/A speed=20.3x    frame= 1969 fps=477 q=-0.0 size=N/A time=00:01:22.12 bitrate=N/A speed=19.9x    frame= 2169 fps=467 q=-0.0 size=N/A time=00:01:30.46 bitrate=N/A speed=19.5x    frame= 2411 fps=468 q=-0.0 size=N/A time=00:01:40.55 bitrate=N/A speed=19.5x    frame= 2635 fps=464 q=-0.0 size=N/A time=00:01:49.90 bitrate=N/A speed=19.3x    frame= 2840 fps=459 q=-0.0 size=N/A time=00:01:58.45 bitrate=N/A speed=19.1x    frame= 3037 fps=453 q=-0.0 size=N/A time=00:02:06.66 bitrate=N/A speed=18.9x    frame= 3239 fps=448 q=-0.0 size=N/A time=00:02:15.09 bitrate=N/A speed=18.7x    frame= 3443 fps=445 q=-0.0 size=N/A time=00:02:23.60 bitrate=N/A speed=18.6x    frame= 3643 fps=442 q=-0.0 size=N/A time=00:02:31.94 bitrate=N/A speed=18.4x    frame= 3817 fps=435 q=-0.0 size=N/A time=00:02:39.20 bitrate=N/A speed=18.1x    frame= 4057 fps=437 q=-0.0 size=N/A time=00:02:49.21 bitrate=N/A speed=18.2x    frame= 4335 fps=442 q=-0.0 size=N/A time=00:03:00.80 bitrate=N/A speed=18.4x    frame= 4616 fps=447 q=-0.0 size=N/A time=00:03:12.52 bitrate=N/A speed=18.7x    frame= 4883 fps=451 q=-0.0 size=N/A time=00:03:23.66 bitrate=N/A speed=18.8x    frame= 5158 fps=454 q=-0.0 size=N/A time=00:03:35.13 bitrate=N/A speed=  19x    frame= 5430 fps=457 q=-0.0 size=N/A time=00:03:46.47 bitrate=N/A speed=19.1x    frame= 5706 fps=461 q=-0.0 size=N/A time=00:03:57.98 bitrate=N/A speed=19.2x    frame= 5968 fps=463 q=-0.0 size=N/A time=00:04:08.91 bitrate=N/A speed=19.3x    frame= 6221 fps=464 q=-0.0 size=N/A time=00:04:19.46 bitrate=N/A speed=19.3x    frame= 6485 fps=466 q=-0.0 size=N/A time=00:04:30.47 bitrate=N/A speed=19.4x    frame= 6732 fps=466 q=-0.0 size=N/A time=00:04:40.78 bitrate=N/A speed=19.4x    frame= 7000 fps=468 q=-0.0 size=N/A time=00:04:51.95 bitrate=N/A speed=19.5x    frame= 7273 fps=470 q=-0.0 size=N/A time=00:05:03.34 bitrate=N/A speed=19.6x    frame= 7532 fps=471 q=-0.0 size=N/A time=00:05:14.14 bitrate=N/A speed=19.6x    frame= 7794 fps=472 q=-0.0 size=N/A time=00:05:25.07 bitrate=N/A speed=19.7x    frame= 8051 fps=473 q=-0.0 size=N/A time=00:05:35.79 bitrate=N/A speed=19.7x    frame= 8282 fps=472 q=-0.0 size=N/A time=00:05:45.42 bitrate=N/A speed=19.7x    frame= 8546 fps=473 q=-0.0 size=N/A time=00:05:56.43 bitrate=N/A speed=19.7x    frame= 8820 fps=475 q=-0.0 size=N/A time=00:06:07.86 bitrate=N/A speed=19.8x    frame= 9085 fps=476 q=-0.0 size=N/A time=00:06:18.92 bitrate=N/A speed=19.9x    frame= 9353 fps=477 q=-0.0 size=N/A time=00:06:30.09 bitrate=N/A speed=19.9x    frame= 9583 fps=476 q=-0.0 size=N/A time=00:06:39.69 bitrate=N/A speed=19.9x    frame= 9855 fps=478 q=-0.0 size=N/A time=00:06:51.03 bitrate=N/A speed=19.9x    frame=10121 fps=478 q=-0.0 size=N/A time=00:07:02.13 bitrate=N/A speed=  20x    frame=10356 fps=478 q=-0.0 size=N/A time=00:07:11.93 bitrate=N/A speed=19.9x    frame=10616 fps=479 q=-0.0 size=N/A time=00:07:22.77 bitrate=N/A speed=  20x    frame=10902 fps=480 q=-0.0 size=N/A time=00:07:34.70 bitrate=N/A speed=  20x    frame=11172 fps=481 q=-0.0 size=N/A time=00:07:45.96 bitrate=N/A speed=20.1x    frame=11451 fps=483 q=-0.0 size=N/A time=00:07:57.60 bitrate=N/A speed=20.1x    frame=11732 fps=484 q=-0.0 size=N/A time=00:08:09.36 bitrate=N/A speed=20.2x    frame=11996 fps=485 q=-0.0 size=N/A time=00:08:20.33 bitrate=N/A speed=20.2x    frame=12280 fps=486 q=-0.0 size=N/A time=00:08:32.17 bitrate=N/A speed=20.3x    frame=12567 fps=487 q=-0.0 size=N/A time=00:08:44.14 bitrate=N/A speed=20.3x    frame=12859 fps=489 q=-0.0 size=N/A time=00:08:56.32 bitrate=N/A speed=20.4x    frame=13130 fps=490 q=-0.0 size=N/A time=00:09:07.63 bitrate=N/A speed=20.4x    frame=13398 fps=490 q=-0.0 size=N/A time=00:09:18.80 bitrate=N/A speed=20.4x    frame=13681 fps=491 q=-0.0 size=N/A time=00:09:30.61 bitrate=N/A speed=20.5x    frame=13934 fps=491 q=-0.0 size=N/A time=00:09:41.16 bitrate=N/A speed=20.5x    frame=14188 fps=491 q=-0.0 size=N/A time=00:09:51.75 bitrate=N/A speed=20.5x    frame=14444 fps=491 q=-0.0 size=N/A time=00:10:02.47 bitrate=N/A speed=20.5x    frame=14709 fps=492 q=-0.0 size=N/A time=00:10:13.48 bitrate=N/A speed=20.5x    frame=14943 fps=491 q=-0.0 size=N/A time=00:10:23.24 bitrate=N/A speed=20.5x    frame=15202 fps=491 q=-0.0 size=N/A time=00:10:34.05 bitrate=N/A speed=20.5x    frame=15463 fps=491 q=-0.0 size=N/A time=00:10:44.93 bitrate=N/A speed=20.5x    frame=15740 fps=492 q=-0.0 size=N/A time=00:10:56.48 bitrate=N/A speed=20.5x    frame=16013 fps=493 q=-0.0 size=N/A time=00:11:07.87 bitrate=N/A speed=20.5x    frame=16292 fps=493 q=-0.0 size=N/A time=00:11:19.51 bitrate=N/A speed=20.6x    frame=16563 fps=494 q=-0.0 size=N/A time=00:11:30.81 bitrate=N/A speed=20.6x    frame=16836 fps=494 q=-0.0 size=N/A time=00:11:42.20 bitrate=N/A speed=20.6x    frame=17103 fps=495 q=-0.0 size=N/A time=00:11:53.33 bitrate=N/A speed=20.6x    frame=17353 fps=495 q=-0.0 size=N/A time=00:12:03.76 bitrate=N/A speed=20.6x    frame=17630 fps=495 q=-0.0 size=N/A time=00:12:15.31 bitrate=N/A speed=20.7x    frame=17907 fps=496 q=-0.0 size=N/A time=00:12:26.87 bitrate=N/A speed=20.7x    frame=18190 fps=497 q=-0.0 size=N/A time=00:12:38.67 bitrate=N/A speed=20.7x    frame=18469 fps=497 q=-0.0 size=N/A time=00:12:50.31 bitrate=N/A speed=20.7x    frame=18735 fps=497 q=-0.0 size=N/A time=00:13:01.40 bitrate=N/A speed=20.7x    frame=18966 fps=497 q=-0.0 size=N/A time=00:13:11.04 bitrate=N/A speed=20.7x    frame=19250 fps=498 q=-0.0 size=N/A time=00:13:22.88 bitrate=N/A speed=20.8x    frame=19520 fps=498 q=-0.0 size=N/A time=00:13:34.14 bitrate=N/A speed=20.8x    frame=19779 fps=498 q=-0.0 size=N/A time=00:13:44.94 bitrate=N/A speed=20.8x    frame=20044 fps=498 q=-0.0 size=N/A time=00:13:56.00 bitrate=N/A speed=20.8x    frame=20315 fps=498 q=-0.0 size=N/A time=00:14:07.30 bitrate=N/A speed=20.8x    frame=20599 fps=499 q=-0.0 size=N/A time=00:14:19.14 bitrate=N/A speed=20.8x    frame=20875 fps=500 q=-0.0 size=N/A time=00:14:30.66 bitrate=N/A speed=20.8x    frame=21130 fps=499 q=-0.0 size=N/A time=00:14:41.29 bitrate=N/A speed=20.8x    frame=21383 fps=499 q=-0.0 size=N/A time=00:14:51.84 bitrate=N/A speed=20.8x    frame=21647 fps=499 q=-0.0 size=N/A time=00:15:02.86 bitrate=N/A speed=20.8x    frame=21897 fps=499 q=-0.0 size=N/A time=00:15:13.28 bitrate=N/A speed=20.8x    frame=22159 fps=500 q=-0.0 size=N/A time=00:15:24.21 bitrate=N/A speed=20.8x    frame=22429 fps=500 q=-0.0 size=N/A time=00:15:35.51 bitrate=N/A speed=20.8x    frame=22711 fps=500 q=-0.0 size=N/A time=00:15:47.23 bitrate=N/A speed=20.9x    frame=22929 fps=499 q=-0.0 size=N/A time=00:15:56.33 bitrate=N/A speed=20.8x    frame=23220 fps=500 q=-0.0 size=N/A time=00:16:08.46 bitrate=N/A speed=20.9x    frame=23484 fps=500 q=-0.0 size=N/A time=00:16:19.47 bitrate=N/A speed=20.9x    frame=23768 fps=501 q=-0.0 size=N/A time=00:16:31.32 bitrate=N/A speed=20.9x    frame=24072 fps=502 q=-0.0 size=N/A time=00:16:44.00 bitrate=N/A speed=20.9x    frame=24344 fps=502 q=-0.0 size=N/A time=00:16:55.34 bitrate=N/A speed=20.9x    frame=24634 fps=503 q=-0.0 size=N/A time=00:17:07.44 bitrate=N/A speed=  21x    frame=24898 fps=503 q=-0.0 size=N/A time=00:17:18.45 bitrate=N/A speed=  21x    frame=25155 fps=503 q=-0.0 size=N/A time=00:17:29.17 bitrate=N/A speed=  21x    frame=25448 fps=503 q=-0.0 size=N/A time=00:17:41.39 bitrate=N/A speed=  21x    frame=25731 fps=504 q=-0.0 size=N/A time=00:17:53.19 bitrate=N/A speed=  21x    frame=25982 fps=504 q=-0.0 size=N/A time=00:18:03.66 bitrate=N/A speed=  21x    frame=26249 fps=504 q=-0.0 size=N/A time=00:18:14.80 bitrate=N/A speed=  21x    frame=26538 fps=504 q=-0.0 size=N/A time=00:18:26.85 bitrate=N/A speed=  21x    frame=26816 fps=505 q=-0.0 size=N/A time=00:18:38.45 bitrate=N/A speed=  21x    frame=27094 fps=505 q=-0.0 size=N/A time=00:18:50.04 bitrate=N/A speed=21.1x    frame=27384 fps=505 q=-0.0 size=N/A time=00:19:02.14 bitrate=N/A speed=21.1x    frame=27633 fps=505 q=-0.0 size=N/A time=00:19:12.52 bitrate=N/A speed=21.1x    frame=27876 fps=505 q=-0.0 size=N/A time=00:19:22.66 bitrate=N/A speed=21.1x    frame=28128 fps=505 q=-0.0 size=N/A time=00:19:33.17 bitrate=N/A speed=21.1x    frame=28339 fps=504 q=-0.0 size=N/A time=00:19:41.97 bitrate=N/A speed=  21x    frame=28617 fps=504 q=-0.0 size=N/A time=00:19:53.56 bitrate=N/A speed=  21x    frame=28845 fps=504 q=-0.0 size=N/A time=00:20:03.07 bitrate=N/A speed=  21x    frame=29103 fps=504 q=-0.0 size=N/A time=00:20:13.83 bitrate=N/A speed=  21x    frame=29335 fps=503 q=-0.0 size=N/A time=00:20:23.51 bitrate=N/A speed=  21x    frame=29596 fps=503 q=-0.0 size=N/A time=00:20:34.39 bitrate=N/A speed=  21x    frame=29849 fps=503 q=-0.0 size=N/A time=00:20:44.95 bitrate=N/A speed=  21x    frame=30120 fps=503 q=-0.0 size=N/A time=00:20:56.25 bitrate=N/A speed=  21x    frame=30413 fps=504 q=-0.0 size=N/A time=00:21:08.47 bitrate=N/A speed=  21x    frame=30684 fps=504 q=-0.0 size=N/A time=00:21:19.77 bitrate=N/A speed=  21x    frame=30941 fps=504 q=-0.0 size=N/A time=00:21:30.49 bitrate=N/A speed=  21x    frame=31211 fps=504 q=-0.0 size=N/A time=00:21:41.75 bitrate=N/A speed=  21x    frame=31425 fps=503 q=-0.0 size=N/A time=00:21:50.68 bitrate=N/A speed=  21x    frame=31664 fps=503 q=-0.0 size=N/A time=00:22:00.65 bitrate=N/A speed=  21x    frame=31909 fps=503 q=-0.0 size=N/A time=00:22:10.87 bitrate=N/A speed=  21x    frame=32123 fps=502 q=-0.0 size=N/A time=00:22:19.79 bitrate=N/A speed=20.9x    frame=32400 fps=502 q=-0.0 size=N/A time=00:22:31.35 bitrate=N/A speed=  21x    frame=32624 fps=502 q=-0.0 size=N/A time=00:22:40.69 bitrate=N/A speed=20.9x    frame=32831 fps=501 q=-0.0 size=N/A time=00:22:49.32 bitrate=N/A speed=20.9x    frame=33079 fps=501 q=-0.0 size=N/A time=00:22:59.66 bitrate=N/A speed=20.9x    frame=33287 fps=500 q=-0.0 size=N/A time=00:23:08.34 bitrate=N/A speed=20.9x    frame=33512 fps=500 q=-0.0 size=N/A time=00:23:17.72 bitrate=N/A speed=20.8x    frame=33789 fps=500 q=-0.0 size=N/A time=00:23:29.28 bitrate=N/A speed=20.9x    [Parsed_psnr_10 @ 0000024efa6bcb00] PSNR y:49.787970 u:51.936735 v:51.897751 average:50.388687 min:43.203253 max:inf
[out#0/null @ 0000024efad5ba00] video:14532KiB audio:264508KiB subtitle:0KiB other streams:0KiB global headers:0KiB muxing overhead: unknown
frame=33820 fps=500 q=-0.0 Lsize=N/A time=00:23:30.57 bitrate=N/A speed=20.9x    
